<mxfile host="drawio-plugin" modified="2021-11-25T21:06:36.858Z" agent="5.0 (Windows NT 6.2; Win64; x64) AppleWebKit/537.36 (KHTML, like Gecko) Chrome/89.0.4389.90 Safari/537.36" etag="0v2dZbsR8GGf3ZpFLpvw" version="14.7.4" type="embed"><diagram id="Ber-renja4PMOwXce2-F" name="Page-1"><mxGraphModel dx="1075" dy="2762" grid="1" gridSize="10" guides="1" tooltips="1" connect="1" arrows="1" fold="1" page="1" pageScale="1" pageWidth="827" pageHeight="1169" math="0" shadow="0"><root><mxCell id="0"/><mxCell id="1" parent="0"/><mxCell id="VnNv1GlPoRaZdp6luFFu-25" style="edgeStyle=orthogonalEdgeStyle;rounded=0;orthogonalLoop=1;jettySize=auto;html=1;endArrow=diamondThin;endFill=1;endSize=12;" parent="1" source="VnNv1GlPoRaZdp6luFFu-1" target="VnNv1GlPoRaZdp6luFFu-5" edge="1"><mxGeometry relative="1" as="geometry"/></mxCell><mxCell id="VnNv1GlPoRaZdp6luFFu-1" value="Generator" style="swimlane;fontStyle=1;align=center;verticalAlign=top;childLayout=stackLayout;horizontal=1;startSize=26;horizontalStack=0;resizeParent=1;resizeParentMax=0;resizeLast=0;collapsible=1;marginBottom=0;" parent="1" vertex="1"><mxGeometry x="290" y="-74" width="160" height="86" as="geometry"/></mxCell><mxCell id="VnNv1GlPoRaZdp6luFFu-2" value="+ field: type" style="text;strokeColor=none;fillColor=none;align=left;verticalAlign=top;spacingLeft=4;spacingRight=4;overflow=hidden;rotatable=0;points=[[0,0.5],[1,0.5]];portConstraint=eastwest;" parent="VnNv1GlPoRaZdp6luFFu-1" vertex="1"><mxGeometry y="26" width="160" height="26" as="geometry"/></mxCell><mxCell id="VnNv1GlPoRaZdp6luFFu-3" value="" style="line;strokeWidth=1;fillColor=none;align=left;verticalAlign=middle;spacingTop=-1;spacingLeft=3;spacingRight=3;rotatable=0;labelPosition=right;points=[];portConstraint=eastwest;" parent="VnNv1GlPoRaZdp6luFFu-1" vertex="1"><mxGeometry y="52" width="160" height="8" as="geometry"/></mxCell><mxCell id="VnNv1GlPoRaZdp6luFFu-4" value="+ method(type): type" style="text;strokeColor=none;fillColor=none;align=left;verticalAlign=top;spacingLeft=4;spacingRight=4;overflow=hidden;rotatable=0;points=[[0,0.5],[1,0.5]];portConstraint=eastwest;" parent="VnNv1GlPoRaZdp6luFFu-1" vertex="1"><mxGeometry y="60" width="160" height="26" as="geometry"/></mxCell><mxCell id="VnNv1GlPoRaZdp6luFFu-68" style="edgeStyle=orthogonalEdgeStyle;rounded=0;orthogonalLoop=1;jettySize=auto;html=1;endArrow=diamondThin;endFill=1;endSize=12;" parent="1" source="VnNv1GlPoRaZdp6luFFu-5" target="VnNv1GlPoRaZdp6luFFu-33" edge="1"><mxGeometry relative="1" as="geometry"><Array as="points"><mxPoint x="130" y="-231"/></Array></mxGeometry></mxCell><mxCell id="VnNv1GlPoRaZdp6luFFu-5" value="AlgorithmController" style="swimlane;fontStyle=1;align=center;verticalAlign=top;childLayout=stackLayout;horizontal=1;startSize=26;horizontalStack=0;resizeParent=1;resizeParentMax=0;resizeLast=0;collapsible=1;marginBottom=0;" parent="1" vertex="1"><mxGeometry x="380" y="-274" width="160" height="86" as="geometry"/></mxCell><mxCell id="VnNv1GlPoRaZdp6luFFu-6" value="+ field: type" style="text;strokeColor=none;fillColor=none;align=left;verticalAlign=top;spacingLeft=4;spacingRight=4;overflow=hidden;rotatable=0;points=[[0,0.5],[1,0.5]];portConstraint=eastwest;" parent="VnNv1GlPoRaZdp6luFFu-5" vertex="1"><mxGeometry y="26" width="160" height="26" as="geometry"/></mxCell><mxCell id="VnNv1GlPoRaZdp6luFFu-7" value="" style="line;strokeWidth=1;fillColor=none;align=left;verticalAlign=middle;spacingTop=-1;spacingLeft=3;spacingRight=3;rotatable=0;labelPosition=right;points=[];portConstraint=eastwest;" parent="VnNv1GlPoRaZdp6luFFu-5" vertex="1"><mxGeometry y="52" width="160" height="8" as="geometry"/></mxCell><mxCell id="VnNv1GlPoRaZdp6luFFu-8" value="+ method(type): type" style="text;strokeColor=none;fillColor=none;align=left;verticalAlign=top;spacingLeft=4;spacingRight=4;overflow=hidden;rotatable=0;points=[[0,0.5],[1,0.5]];portConstraint=eastwest;" parent="VnNv1GlPoRaZdp6luFFu-5" vertex="1"><mxGeometry y="60" width="160" height="26" as="geometry"/></mxCell><mxCell id="VnNv1GlPoRaZdp6luFFu-28" style="edgeStyle=orthogonalEdgeStyle;rounded=0;orthogonalLoop=1;jettySize=auto;html=1;endArrow=diamondThin;endFill=1;endSize=12;" parent="1" source="VnNv1GlPoRaZdp6luFFu-9" target="VnNv1GlPoRaZdp6luFFu-21" edge="1"><mxGeometry relative="1" as="geometry"><mxPoint x="860" y="-34" as="targetPoint"/><Array as="points"><mxPoint x="680" y="106"/><mxPoint x="680" y="106"/></Array></mxGeometry></mxCell><mxCell id="VnNv1GlPoRaZdp6luFFu-9" value="PreProcessor" style="swimlane;fontStyle=1;align=center;verticalAlign=top;childLayout=stackLayout;horizontal=1;startSize=26;horizontalStack=0;resizeParent=1;resizeParentMax=0;resizeLast=0;collapsible=1;marginBottom=0;" parent="1" vertex="1"><mxGeometry x="600" y="136" width="160" height="86" as="geometry"/></mxCell><mxCell id="VnNv1GlPoRaZdp6luFFu-10" value="+ field: type" style="text;strokeColor=none;fillColor=none;align=left;verticalAlign=top;spacingLeft=4;spacingRight=4;overflow=hidden;rotatable=0;points=[[0,0.5],[1,0.5]];portConstraint=eastwest;" parent="VnNv1GlPoRaZdp6luFFu-9" vertex="1"><mxGeometry y="26" width="160" height="26" as="geometry"/></mxCell><mxCell id="VnNv1GlPoRaZdp6luFFu-11" value="" style="line;strokeWidth=1;fillColor=none;align=left;verticalAlign=middle;spacingTop=-1;spacingLeft=3;spacingRight=3;rotatable=0;labelPosition=right;points=[];portConstraint=eastwest;" parent="VnNv1GlPoRaZdp6luFFu-9" vertex="1"><mxGeometry y="52" width="160" height="8" as="geometry"/></mxCell><mxCell id="VnNv1GlPoRaZdp6luFFu-12" value="+ method(type): type" style="text;strokeColor=none;fillColor=none;align=left;verticalAlign=top;spacingLeft=4;spacingRight=4;overflow=hidden;rotatable=0;points=[[0,0.5],[1,0.5]];portConstraint=eastwest;" parent="VnNv1GlPoRaZdp6luFFu-9" vertex="1"><mxGeometry y="60" width="160" height="26" as="geometry"/></mxCell><mxCell id="VnNv1GlPoRaZdp6luFFu-27" style="edgeStyle=orthogonalEdgeStyle;rounded=0;orthogonalLoop=1;jettySize=auto;html=1;endArrow=diamondThin;endFill=1;endSize=12;" parent="1" source="VnNv1GlPoRaZdp6luFFu-13" target="VnNv1GlPoRaZdp6luFFu-21" edge="1"><mxGeometry relative="1" as="geometry"><mxPoint x="890" y="-24" as="targetPoint"/><Array as="points"><mxPoint x="990" y="76"/><mxPoint x="880" y="76"/></Array></mxGeometry></mxCell><mxCell id="VnNv1GlPoRaZdp6luFFu-13" value="Validator" style="swimlane;fontStyle=1;align=center;verticalAlign=top;childLayout=stackLayout;horizontal=1;startSize=26;horizontalStack=0;resizeParent=1;resizeParentMax=0;resizeLast=0;collapsible=1;marginBottom=0;" parent="1" vertex="1"><mxGeometry x="910" y="146" width="160" height="86" as="geometry"/></mxCell><mxCell id="VnNv1GlPoRaZdp6luFFu-14" value="+ field: type" style="text;strokeColor=none;fillColor=none;align=left;verticalAlign=top;spacingLeft=4;spacingRight=4;overflow=hidden;rotatable=0;points=[[0,0.5],[1,0.5]];portConstraint=eastwest;" parent="VnNv1GlPoRaZdp6luFFu-13" vertex="1"><mxGeometry y="26" width="160" height="26" as="geometry"/></mxCell><mxCell id="VnNv1GlPoRaZdp6luFFu-15" value="" style="line;strokeWidth=1;fillColor=none;align=left;verticalAlign=middle;spacingTop=-1;spacingLeft=3;spacingRight=3;rotatable=0;labelPosition=right;points=[];portConstraint=eastwest;" parent="VnNv1GlPoRaZdp6luFFu-13" vertex="1"><mxGeometry y="52" width="160" height="8" as="geometry"/></mxCell><mxCell id="VnNv1GlPoRaZdp6luFFu-16" value="+ method(type): type" style="text;strokeColor=none;fillColor=none;align=left;verticalAlign=top;spacingLeft=4;spacingRight=4;overflow=hidden;rotatable=0;points=[[0,0.5],[1,0.5]];portConstraint=eastwest;" parent="VnNv1GlPoRaZdp6luFFu-13" vertex="1"><mxGeometry y="60" width="160" height="26" as="geometry"/></mxCell><mxCell id="VnNv1GlPoRaZdp6luFFu-29" style="edgeStyle=orthogonalEdgeStyle;rounded=0;orthogonalLoop=1;jettySize=auto;html=1;endArrow=diamondThin;endFill=1;endSize=12;" parent="1" source="VnNv1GlPoRaZdp6luFFu-17" target="VnNv1GlPoRaZdp6luFFu-5" edge="1"><mxGeometry relative="1" as="geometry"/></mxCell><mxCell id="VnNv1GlPoRaZdp6luFFu-17" value="WallNumberApplier" style="swimlane;fontStyle=1;align=center;verticalAlign=top;childLayout=stackLayout;horizontal=1;startSize=26;horizontalStack=0;resizeParent=1;resizeParentMax=0;resizeLast=0;collapsible=1;marginBottom=0;" parent="1" vertex="1"><mxGeometry x="740" y="-274" width="160" height="86" as="geometry"/></mxCell><mxCell id="VnNv1GlPoRaZdp6luFFu-18" value="+ field: type" style="text;strokeColor=none;fillColor=none;align=left;verticalAlign=top;spacingLeft=4;spacingRight=4;overflow=hidden;rotatable=0;points=[[0,0.5],[1,0.5]];portConstraint=eastwest;" parent="VnNv1GlPoRaZdp6luFFu-17" vertex="1"><mxGeometry y="26" width="160" height="26" as="geometry"/></mxCell><mxCell id="VnNv1GlPoRaZdp6luFFu-19" value="" style="line;strokeWidth=1;fillColor=none;align=left;verticalAlign=middle;spacingTop=-1;spacingLeft=3;spacingRight=3;rotatable=0;labelPosition=right;points=[];portConstraint=eastwest;" parent="VnNv1GlPoRaZdp6luFFu-17" vertex="1"><mxGeometry y="52" width="160" height="8" as="geometry"/></mxCell><mxCell id="VnNv1GlPoRaZdp6luFFu-20" value="+ method(type): type" style="text;strokeColor=none;fillColor=none;align=left;verticalAlign=top;spacingLeft=4;spacingRight=4;overflow=hidden;rotatable=0;points=[[0,0.5],[1,0.5]];portConstraint=eastwest;" parent="VnNv1GlPoRaZdp6luFFu-17" vertex="1"><mxGeometry y="60" width="160" height="26" as="geometry"/></mxCell><mxCell id="VnNv1GlPoRaZdp6luFFu-26" style="edgeStyle=orthogonalEdgeStyle;rounded=0;orthogonalLoop=1;jettySize=auto;html=1;endArrow=diamondThin;endFill=1;endSize=12;" parent="1" source="VnNv1GlPoRaZdp6luFFu-21" target="VnNv1GlPoRaZdp6luFFu-5" edge="1"><mxGeometry relative="1" as="geometry"><Array as="points"><mxPoint x="520" y="-41"/></Array></mxGeometry></mxCell><mxCell id="VnNv1GlPoRaZdp6luFFu-30" style="edgeStyle=orthogonalEdgeStyle;rounded=0;orthogonalLoop=1;jettySize=auto;html=1;endArrow=classic;endFill=1;endSize=12;" parent="1" source="VnNv1GlPoRaZdp6luFFu-21" target="VnNv1GlPoRaZdp6luFFu-17" edge="1"><mxGeometry relative="1" as="geometry"><Array as="points"><mxPoint x="720" y="-136"/><mxPoint x="820" y="-136"/></Array></mxGeometry></mxCell><mxCell id="VnNv1GlPoRaZdp6luFFu-21" value="PuzzleSolver" style="swimlane;fontStyle=1;align=center;verticalAlign=top;childLayout=stackLayout;horizontal=1;startSize=26;horizontalStack=0;resizeParent=1;resizeParentMax=0;resizeLast=0;collapsible=1;marginBottom=0;" parent="1" vertex="1"><mxGeometry x="600" y="-84" width="160" height="86" as="geometry"/></mxCell><mxCell id="VnNv1GlPoRaZdp6luFFu-22" value="+ field: type" style="text;strokeColor=none;fillColor=none;align=left;verticalAlign=top;spacingLeft=4;spacingRight=4;overflow=hidden;rotatable=0;points=[[0,0.5],[1,0.5]];portConstraint=eastwest;" parent="VnNv1GlPoRaZdp6luFFu-21" vertex="1"><mxGeometry y="26" width="160" height="26" as="geometry"/></mxCell><mxCell id="VnNv1GlPoRaZdp6luFFu-23" value="" style="line;strokeWidth=1;fillColor=none;align=left;verticalAlign=middle;spacingTop=-1;spacingLeft=3;spacingRight=3;rotatable=0;labelPosition=right;points=[];portConstraint=eastwest;" parent="VnNv1GlPoRaZdp6luFFu-21" vertex="1"><mxGeometry y="52" width="160" height="8" as="geometry"/></mxCell><mxCell id="VnNv1GlPoRaZdp6luFFu-24" value="+ method(type): type" style="text;strokeColor=none;fillColor=none;align=left;verticalAlign=top;spacingLeft=4;spacingRight=4;overflow=hidden;rotatable=0;points=[[0,0.5],[1,0.5]];portConstraint=eastwest;" parent="VnNv1GlPoRaZdp6luFFu-21" vertex="1"><mxGeometry y="60" width="160" height="26" as="geometry"/></mxCell><mxCell id="VnNv1GlPoRaZdp6luFFu-32" style="edgeStyle=orthogonalEdgeStyle;rounded=0;orthogonalLoop=1;jettySize=auto;html=1;endArrow=classic;endFill=1;endSize=12;" parent="1" source="VnNv1GlPoRaZdp6luFFu-10" target="VnNv1GlPoRaZdp6luFFu-13" edge="1"><mxGeometry relative="1" as="geometry"/></mxCell><mxCell id="VnNv1GlPoRaZdp6luFFu-33" value="GameController" style="swimlane;fontStyle=1;align=center;verticalAlign=top;childLayout=stackLayout;horizontal=1;startSize=26;horizontalStack=0;resizeParent=1;resizeParentMax=0;resizeLast=0;collapsible=1;marginBottom=0;" parent="1" vertex="1"><mxGeometry x="10" y="50" width="160" height="86" as="geometry"/></mxCell><mxCell id="VnNv1GlPoRaZdp6luFFu-34" value="+ field: type" style="text;strokeColor=none;fillColor=none;align=left;verticalAlign=top;spacingLeft=4;spacingRight=4;overflow=hidden;rotatable=0;points=[[0,0.5],[1,0.5]];portConstraint=eastwest;" parent="VnNv1GlPoRaZdp6luFFu-33" vertex="1"><mxGeometry y="26" width="160" height="26" as="geometry"/></mxCell><mxCell id="VnNv1GlPoRaZdp6luFFu-35" value="" style="line;strokeWidth=1;fillColor=none;align=left;verticalAlign=middle;spacingTop=-1;spacingLeft=3;spacingRight=3;rotatable=0;labelPosition=right;points=[];portConstraint=eastwest;" parent="VnNv1GlPoRaZdp6luFFu-33" vertex="1"><mxGeometry y="52" width="160" height="8" as="geometry"/></mxCell><mxCell id="VnNv1GlPoRaZdp6luFFu-36" value="+ method(type): type" style="text;strokeColor=none;fillColor=none;align=left;verticalAlign=top;spacingLeft=4;spacingRight=4;overflow=hidden;rotatable=0;points=[[0,0.5],[1,0.5]];portConstraint=eastwest;" parent="VnNv1GlPoRaZdp6luFFu-33" vertex="1"><mxGeometry y="60" width="160" height="26" as="geometry"/></mxCell><mxCell id="VnNv1GlPoRaZdp6luFFu-46" style="edgeStyle=orthogonalEdgeStyle;rounded=0;orthogonalLoop=1;jettySize=auto;html=1;endArrow=diamondThin;endFill=1;endSize=12;" parent="1" source="VnNv1GlPoRaZdp6luFFu-37" target="VnNv1GlPoRaZdp6luFFu-33" edge="1"><mxGeometry relative="1" as="geometry"><Array as="points"><mxPoint x="70" y="283"/></Array></mxGeometry></mxCell><mxCell id="VnNv1GlPoRaZdp6luFFu-45" style="edgeStyle=orthogonalEdgeStyle;rounded=0;orthogonalLoop=1;jettySize=auto;html=1;endArrow=diamondThin;endFill=1;endSize=12;" parent="1" source="VnNv1GlPoRaZdp6luFFu-41" target="VnNv1GlPoRaZdp6luFFu-33" edge="1"><mxGeometry relative="1" as="geometry"><Array as="points"><mxPoint x="90" y="163"/></Array></mxGeometry></mxCell><mxCell id="VnNv1GlPoRaZdp6luFFu-41" value="GameBoardValidator" style="swimlane;fontStyle=1;align=center;verticalAlign=top;childLayout=stackLayout;horizontal=1;startSize=26;horizontalStack=0;resizeParent=1;resizeParentMax=0;resizeLast=0;collapsible=1;marginBottom=0;" parent="1" vertex="1"><mxGeometry x="210" y="120" width="160" height="86" as="geometry"/></mxCell><mxCell id="VnNv1GlPoRaZdp6luFFu-42" value="+ field: type" style="text;strokeColor=none;fillColor=none;align=left;verticalAlign=top;spacingLeft=4;spacingRight=4;overflow=hidden;rotatable=0;points=[[0,0.5],[1,0.5]];portConstraint=eastwest;" parent="VnNv1GlPoRaZdp6luFFu-41" vertex="1"><mxGeometry y="26" width="160" height="26" as="geometry"/></mxCell><mxCell id="VnNv1GlPoRaZdp6luFFu-43" value="" style="line;strokeWidth=1;fillColor=none;align=left;verticalAlign=middle;spacingTop=-1;spacingLeft=3;spacingRight=3;rotatable=0;labelPosition=right;points=[];portConstraint=eastwest;" parent="VnNv1GlPoRaZdp6luFFu-41" vertex="1"><mxGeometry y="52" width="160" height="8" as="geometry"/></mxCell><mxCell id="VnNv1GlPoRaZdp6luFFu-44" value="+ method(type): type" style="text;strokeColor=none;fillColor=none;align=left;verticalAlign=top;spacingLeft=4;spacingRight=4;overflow=hidden;rotatable=0;points=[[0,0.5],[1,0.5]];portConstraint=eastwest;" parent="VnNv1GlPoRaZdp6luFFu-41" vertex="1"><mxGeometry y="60" width="160" height="26" as="geometry"/></mxCell><mxCell id="VnNv1GlPoRaZdp6luFFu-47" value="GameBoardController" style="swimlane;fontStyle=1;align=center;verticalAlign=top;childLayout=stackLayout;horizontal=1;startSize=26;horizontalStack=0;resizeParent=1;resizeParentMax=0;resizeLast=0;collapsible=1;marginBottom=0;" parent="1" vertex="1"><mxGeometry x="-440" y="60" width="160" height="86" as="geometry"/></mxCell><mxCell id="VnNv1GlPoRaZdp6luFFu-48" value="+ field: type" style="text;strokeColor=none;fillColor=none;align=left;verticalAlign=top;spacingLeft=4;spacingRight=4;overflow=hidden;rotatable=0;points=[[0,0.5],[1,0.5]];portConstraint=eastwest;" parent="VnNv1GlPoRaZdp6luFFu-47" vertex="1"><mxGeometry y="26" width="160" height="26" as="geometry"/></mxCell><mxCell id="VnNv1GlPoRaZdp6luFFu-49" value="" style="line;strokeWidth=1;fillColor=none;align=left;verticalAlign=middle;spacingTop=-1;spacingLeft=3;spacingRight=3;rotatable=0;labelPosition=right;points=[];portConstraint=eastwest;" parent="VnNv1GlPoRaZdp6luFFu-47" vertex="1"><mxGeometry y="52" width="160" height="8" as="geometry"/></mxCell><mxCell id="VnNv1GlPoRaZdp6luFFu-50" value="+ method(type): type" style="text;strokeColor=none;fillColor=none;align=left;verticalAlign=top;spacingLeft=4;spacingRight=4;overflow=hidden;rotatable=0;points=[[0,0.5],[1,0.5]];portConstraint=eastwest;" parent="VnNv1GlPoRaZdp6luFFu-47" vertex="1"><mxGeometry y="60" width="160" height="26" as="geometry"/></mxCell><mxCell id="VnNv1GlPoRaZdp6luFFu-90" style="edgeStyle=orthogonalEdgeStyle;rounded=0;orthogonalLoop=1;jettySize=auto;html=1;endArrow=open;endFill=0;endSize=12;" parent="1" source="VnNv1GlPoRaZdp6luFFu-51" target="VnNv1GlPoRaZdp6luFFu-55" edge="1"><mxGeometry relative="1" as="geometry"><mxPoint x="-90" y="-240" as="targetPoint"/><Array as="points"><mxPoint x="-250" y="-212"/><mxPoint x="-160" y="-212"/></Array></mxGeometry></mxCell><mxCell id="VnNv1GlPoRaZdp6luFFu-94" style="edgeStyle=orthogonalEdgeStyle;rounded=0;orthogonalLoop=1;jettySize=auto;html=1;endArrow=classic;endFill=1;endSize=12;" parent="1" source="VnNv1GlPoRaZdp6luFFu-51" target="VnNv1GlPoRaZdp6luFFu-47" edge="1"><mxGeometry relative="1" as="geometry"><Array as="points"><mxPoint x="-300" y="-30"/><mxPoint x="-360" y="-30"/></Array></mxGeometry></mxCell><mxCell id="VnNv1GlPoRaZdp6luFFu-51" value="GoodTileController" style="swimlane;fontStyle=1;align=center;verticalAlign=top;childLayout=stackLayout;horizontal=1;startSize=26;horizontalStack=0;resizeParent=1;resizeParentMax=0;resizeLast=0;collapsible=1;marginBottom=0;" parent="1" vertex="1"><mxGeometry x="-330" y="-160" width="160" height="86" as="geometry"/></mxCell><mxCell id="VnNv1GlPoRaZdp6luFFu-52" value="+ field: type" style="text;strokeColor=none;fillColor=none;align=left;verticalAlign=top;spacingLeft=4;spacingRight=4;overflow=hidden;rotatable=0;points=[[0,0.5],[1,0.5]];portConstraint=eastwest;" parent="VnNv1GlPoRaZdp6luFFu-51" vertex="1"><mxGeometry y="26" width="160" height="26" as="geometry"/></mxCell><mxCell id="VnNv1GlPoRaZdp6luFFu-53" value="" style="line;strokeWidth=1;fillColor=none;align=left;verticalAlign=middle;spacingTop=-1;spacingLeft=3;spacingRight=3;rotatable=0;labelPosition=right;points=[];portConstraint=eastwest;" parent="VnNv1GlPoRaZdp6luFFu-51" vertex="1"><mxGeometry y="52" width="160" height="8" as="geometry"/></mxCell><mxCell id="VnNv1GlPoRaZdp6luFFu-54" value="+ method(type): type" style="text;strokeColor=none;fillColor=none;align=left;verticalAlign=top;spacingLeft=4;spacingRight=4;overflow=hidden;rotatable=0;points=[[0,0.5],[1,0.5]];portConstraint=eastwest;" parent="VnNv1GlPoRaZdp6luFFu-51" vertex="1"><mxGeometry y="60" width="160" height="26" as="geometry"/></mxCell><mxCell id="VnNv1GlPoRaZdp6luFFu-55" value="TileBase" style="swimlane;fontStyle=1;align=center;verticalAlign=top;childLayout=stackLayout;horizontal=1;startSize=26;horizontalStack=0;resizeParent=1;resizeParentMax=0;resizeLast=0;collapsible=1;marginBottom=0;" parent="1" vertex="1"><mxGeometry x="-200" y="-360" width="160" height="86" as="geometry"/></mxCell><mxCell id="VnNv1GlPoRaZdp6luFFu-56" value="+ field: type" style="text;strokeColor=none;fillColor=none;align=left;verticalAlign=top;spacingLeft=4;spacingRight=4;overflow=hidden;rotatable=0;points=[[0,0.5],[1,0.5]];portConstraint=eastwest;" parent="VnNv1GlPoRaZdp6luFFu-55" vertex="1"><mxGeometry y="26" width="160" height="26" as="geometry"/></mxCell><mxCell id="VnNv1GlPoRaZdp6luFFu-57" value="" style="line;strokeWidth=1;fillColor=none;align=left;verticalAlign=middle;spacingTop=-1;spacingLeft=3;spacingRight=3;rotatable=0;labelPosition=right;points=[];portConstraint=eastwest;" parent="VnNv1GlPoRaZdp6luFFu-55" vertex="1"><mxGeometry y="52" width="160" height="8" as="geometry"/></mxCell><mxCell id="VnNv1GlPoRaZdp6luFFu-58" value="+ method(type): type" style="text;strokeColor=none;fillColor=none;align=left;verticalAlign=top;spacingLeft=4;spacingRight=4;overflow=hidden;rotatable=0;points=[[0,0.5],[1,0.5]];portConstraint=eastwest;" parent="VnNv1GlPoRaZdp6luFFu-55" vertex="1"><mxGeometry y="60" width="160" height="26" as="geometry"/></mxCell><mxCell id="VnNv1GlPoRaZdp6luFFu-92" style="edgeStyle=orthogonalEdgeStyle;rounded=0;orthogonalLoop=1;jettySize=auto;html=1;endArrow=diamondThin;endFill=1;endSize=12;" parent="1" source="VnNv1GlPoRaZdp6luFFu-59" target="VnNv1GlPoRaZdp6luFFu-55" edge="1"><mxGeometry relative="1" as="geometry"><mxPoint x="-10" y="-422" as="targetPoint"/></mxGeometry></mxCell><mxCell id="VnNv1GlPoRaZdp6luFFu-59" value="TileRenderer" style="swimlane;fontStyle=1;align=center;verticalAlign=top;childLayout=stackLayout;horizontal=1;startSize=26;horizontalStack=0;resizeParent=1;resizeParentMax=0;resizeLast=0;collapsible=1;marginBottom=0;" parent="1" vertex="1"><mxGeometry x="-470" y="-360" width="160" height="86" as="geometry"/></mxCell><mxCell id="VnNv1GlPoRaZdp6luFFu-60" value="+ field: type" style="text;strokeColor=none;fillColor=none;align=left;verticalAlign=top;spacingLeft=4;spacingRight=4;overflow=hidden;rotatable=0;points=[[0,0.5],[1,0.5]];portConstraint=eastwest;" parent="VnNv1GlPoRaZdp6luFFu-59" vertex="1"><mxGeometry y="26" width="160" height="26" as="geometry"/></mxCell><mxCell id="VnNv1GlPoRaZdp6luFFu-61" value="" style="line;strokeWidth=1;fillColor=none;align=left;verticalAlign=middle;spacingTop=-1;spacingLeft=3;spacingRight=3;rotatable=0;labelPosition=right;points=[];portConstraint=eastwest;" parent="VnNv1GlPoRaZdp6luFFu-59" vertex="1"><mxGeometry y="52" width="160" height="8" as="geometry"/></mxCell><mxCell id="VnNv1GlPoRaZdp6luFFu-62" value="+ method(type): type" style="text;strokeColor=none;fillColor=none;align=left;verticalAlign=top;spacingLeft=4;spacingRight=4;overflow=hidden;rotatable=0;points=[[0,0.5],[1,0.5]];portConstraint=eastwest;" parent="VnNv1GlPoRaZdp6luFFu-59" vertex="1"><mxGeometry y="60" width="160" height="26" as="geometry"/></mxCell><mxCell id="VnNv1GlPoRaZdp6luFFu-91" style="edgeStyle=orthogonalEdgeStyle;rounded=0;orthogonalLoop=1;jettySize=auto;html=1;endArrow=open;endFill=0;endSize=12;" parent="1" source="VnNv1GlPoRaZdp6luFFu-63" target="VnNv1GlPoRaZdp6luFFu-55" edge="1"><mxGeometry relative="1" as="geometry"><Array as="points"><mxPoint x="-10" y="-212"/><mxPoint x="-90" y="-212"/></Array></mxGeometry></mxCell><mxCell id="VnNv1GlPoRaZdp6luFFu-93" style="edgeStyle=orthogonalEdgeStyle;rounded=0;orthogonalLoop=1;jettySize=auto;html=1;endArrow=classic;endFill=1;endSize=12;" parent="1" source="VnNv1GlPoRaZdp6luFFu-63" target="VnNv1GlPoRaZdp6luFFu-47" edge="1"><mxGeometry relative="1" as="geometry"><Array as="points"><mxPoint x="-10" y="-10"/><mxPoint x="-310" y="-10"/></Array></mxGeometry></mxCell><mxCell id="VnNv1GlPoRaZdp6luFFu-63" value="BadTileController" style="swimlane;fontStyle=1;align=center;verticalAlign=top;childLayout=stackLayout;horizontal=1;startSize=26;horizontalStack=0;resizeParent=1;resizeParentMax=0;resizeLast=0;collapsible=1;marginBottom=0;" parent="1" vertex="1"><mxGeometry x="-90" y="-160" width="160" height="86" as="geometry"/></mxCell><mxCell id="VnNv1GlPoRaZdp6luFFu-64" value="+ field: type" style="text;strokeColor=none;fillColor=none;align=left;verticalAlign=top;spacingLeft=4;spacingRight=4;overflow=hidden;rotatable=0;points=[[0,0.5],[1,0.5]];portConstraint=eastwest;" parent="VnNv1GlPoRaZdp6luFFu-63" vertex="1"><mxGeometry y="26" width="160" height="26" as="geometry"/></mxCell><mxCell id="VnNv1GlPoRaZdp6luFFu-65" value="" style="line;strokeWidth=1;fillColor=none;align=left;verticalAlign=middle;spacingTop=-1;spacingLeft=3;spacingRight=3;rotatable=0;labelPosition=right;points=[];portConstraint=eastwest;" parent="VnNv1GlPoRaZdp6luFFu-63" vertex="1"><mxGeometry y="52" width="160" height="8" as="geometry"/></mxCell><mxCell id="VnNv1GlPoRaZdp6luFFu-66" value="+ method(type): type" style="text;strokeColor=none;fillColor=none;align=left;verticalAlign=top;spacingLeft=4;spacingRight=4;overflow=hidden;rotatable=0;points=[[0,0.5],[1,0.5]];portConstraint=eastwest;" parent="VnNv1GlPoRaZdp6luFFu-63" vertex="1"><mxGeometry y="60" width="160" height="26" as="geometry"/></mxCell><mxCell id="VnNv1GlPoRaZdp6luFFu-67" style="edgeStyle=orthogonalEdgeStyle;rounded=0;orthogonalLoop=1;jettySize=auto;html=1;endArrow=diamondThin;endFill=1;endSize=12;" parent="1" source="VnNv1GlPoRaZdp6luFFu-48" target="VnNv1GlPoRaZdp6luFFu-33" edge="1"><mxGeometry relative="1" as="geometry"><Array as="points"><mxPoint x="-190" y="93"/><mxPoint x="-190" y="93"/></Array></mxGeometry></mxCell><mxCell id="VnNv1GlPoRaZdp6luFFu-95" style="edgeStyle=orthogonalEdgeStyle;rounded=0;orthogonalLoop=1;jettySize=auto;html=1;endArrow=diamondThin;endFill=0;endSize=12;" parent="1" source="VnNv1GlPoRaZdp6luFFu-69" target="VnNv1GlPoRaZdp6luFFu-81" edge="1"><mxGeometry relative="1" as="geometry"><mxPoint x="-340" y="795" as="targetPoint"/></mxGeometry></mxCell><mxCell id="VnNv1GlPoRaZdp6luFFu-69" value="DifficultyButton" style="swimlane;fontStyle=1;align=center;verticalAlign=top;childLayout=stackLayout;horizontal=1;startSize=26;horizontalStack=0;resizeParent=1;resizeParentMax=0;resizeLast=0;collapsible=1;marginBottom=0;" parent="1" vertex="1"><mxGeometry x="-300" y="861" width="160" height="86" as="geometry"/></mxCell><mxCell id="VnNv1GlPoRaZdp6luFFu-70" value="+ field: type" style="text;strokeColor=none;fillColor=none;align=left;verticalAlign=top;spacingLeft=4;spacingRight=4;overflow=hidden;rotatable=0;points=[[0,0.5],[1,0.5]];portConstraint=eastwest;" parent="VnNv1GlPoRaZdp6luFFu-69" vertex="1"><mxGeometry y="26" width="160" height="26" as="geometry"/></mxCell><mxCell id="VnNv1GlPoRaZdp6luFFu-71" value="" style="line;strokeWidth=1;fillColor=none;align=left;verticalAlign=middle;spacingTop=-1;spacingLeft=3;spacingRight=3;rotatable=0;labelPosition=right;points=[];portConstraint=eastwest;" parent="VnNv1GlPoRaZdp6luFFu-69" vertex="1"><mxGeometry y="52" width="160" height="8" as="geometry"/></mxCell><mxCell id="VnNv1GlPoRaZdp6luFFu-72" value="+ method(type): type" style="text;strokeColor=none;fillColor=none;align=left;verticalAlign=top;spacingLeft=4;spacingRight=4;overflow=hidden;rotatable=0;points=[[0,0.5],[1,0.5]];portConstraint=eastwest;" parent="VnNv1GlPoRaZdp6luFFu-69" vertex="1"><mxGeometry y="60" width="160" height="26" as="geometry"/></mxCell><mxCell id="VnNv1GlPoRaZdp6luFFu-73" value="LevelLoader" style="swimlane;fontStyle=1;align=center;verticalAlign=top;childLayout=stackLayout;horizontal=1;startSize=26;horizontalStack=0;resizeParent=1;resizeParentMax=0;resizeLast=0;collapsible=1;marginBottom=0;" parent="1" vertex="1"><mxGeometry x="20" y="460" width="160" height="86" as="geometry"/></mxCell><mxCell id="VnNv1GlPoRaZdp6luFFu-74" value="+ field: type" style="text;strokeColor=none;fillColor=none;align=left;verticalAlign=top;spacingLeft=4;spacingRight=4;overflow=hidden;rotatable=0;points=[[0,0.5],[1,0.5]];portConstraint=eastwest;" parent="VnNv1GlPoRaZdp6luFFu-73" vertex="1"><mxGeometry y="26" width="160" height="26" as="geometry"/></mxCell><mxCell id="VnNv1GlPoRaZdp6luFFu-75" value="" style="line;strokeWidth=1;fillColor=none;align=left;verticalAlign=middle;spacingTop=-1;spacingLeft=3;spacingRight=3;rotatable=0;labelPosition=right;points=[];portConstraint=eastwest;" parent="VnNv1GlPoRaZdp6luFFu-73" vertex="1"><mxGeometry y="52" width="160" height="8" as="geometry"/></mxCell><mxCell id="VnNv1GlPoRaZdp6luFFu-76" value="+ method(type): type" style="text;strokeColor=none;fillColor=none;align=left;verticalAlign=top;spacingLeft=4;spacingRight=4;overflow=hidden;rotatable=0;points=[[0,0.5],[1,0.5]];portConstraint=eastwest;" parent="VnNv1GlPoRaZdp6luFFu-73" vertex="1"><mxGeometry y="60" width="160" height="26" as="geometry"/></mxCell><mxCell id="VnNv1GlPoRaZdp6luFFu-99" style="edgeStyle=orthogonalEdgeStyle;rounded=0;orthogonalLoop=1;jettySize=auto;html=1;endArrow=diamondThin;endFill=0;endSize=12;" parent="1" source="VnNv1GlPoRaZdp6luFFu-81" target="VnNv1GlPoRaZdp6luFFu-73" edge="1"><mxGeometry relative="1" as="geometry"><Array as="points"><mxPoint x="50" y="718"/></Array></mxGeometry></mxCell><mxCell id="VnNv1GlPoRaZdp6luFFu-81" value="MainMenu" style="swimlane;fontStyle=1;align=center;verticalAlign=top;childLayout=stackLayout;horizontal=1;startSize=26;horizontalStack=0;resizeParent=1;resizeParentMax=0;resizeLast=0;collapsible=1;marginBottom=0;" parent="1" vertex="1"><mxGeometry x="-443" y="675" width="160" height="86" as="geometry"/></mxCell><mxCell id="VnNv1GlPoRaZdp6luFFu-82" value="+ field: type" style="text;strokeColor=none;fillColor=none;align=left;verticalAlign=top;spacingLeft=4;spacingRight=4;overflow=hidden;rotatable=0;points=[[0,0.5],[1,0.5]];portConstraint=eastwest;" parent="VnNv1GlPoRaZdp6luFFu-81" vertex="1"><mxGeometry y="26" width="160" height="26" as="geometry"/></mxCell><mxCell id="VnNv1GlPoRaZdp6luFFu-83" value="" style="line;strokeWidth=1;fillColor=none;align=left;verticalAlign=middle;spacingTop=-1;spacingLeft=3;spacingRight=3;rotatable=0;labelPosition=right;points=[];portConstraint=eastwest;" parent="VnNv1GlPoRaZdp6luFFu-81" vertex="1"><mxGeometry y="52" width="160" height="8" as="geometry"/></mxCell><mxCell id="VnNv1GlPoRaZdp6luFFu-84" value="+ method(type): type" style="text;strokeColor=none;fillColor=none;align=left;verticalAlign=top;spacingLeft=4;spacingRight=4;overflow=hidden;rotatable=0;points=[[0,0.5],[1,0.5]];portConstraint=eastwest;" parent="VnNv1GlPoRaZdp6luFFu-81" vertex="1"><mxGeometry y="60" width="160" height="26" as="geometry"/></mxCell><mxCell id="VnNv1GlPoRaZdp6luFFu-96" style="edgeStyle=orthogonalEdgeStyle;rounded=0;orthogonalLoop=1;jettySize=auto;html=1;endArrow=diamondThin;endFill=0;endSize=12;" parent="1" source="VnNv1GlPoRaZdp6luFFu-85" target="VnNv1GlPoRaZdp6luFFu-81" edge="1"><mxGeometry relative="1" as="geometry"><Array as="points"><mxPoint x="-520" y="816"/><mxPoint x="-390" y="816"/></Array></mxGeometry></mxCell><mxCell id="VnNv1GlPoRaZdp6luFFu-85" value="SizeButton" style="swimlane;fontStyle=1;align=center;verticalAlign=top;childLayout=stackLayout;horizontal=1;startSize=26;horizontalStack=0;resizeParent=1;resizeParentMax=0;resizeLast=0;collapsible=1;marginBottom=0;" parent="1" vertex="1"><mxGeometry x="-600" y="861" width="160" height="86" as="geometry"/></mxCell><mxCell id="VnNv1GlPoRaZdp6luFFu-86" value="+ field: type" style="text;strokeColor=none;fillColor=none;align=left;verticalAlign=top;spacingLeft=4;spacingRight=4;overflow=hidden;rotatable=0;points=[[0,0.5],[1,0.5]];portConstraint=eastwest;" parent="VnNv1GlPoRaZdp6luFFu-85" vertex="1"><mxGeometry y="26" width="160" height="26" as="geometry"/></mxCell><mxCell id="VnNv1GlPoRaZdp6luFFu-87" value="" style="line;strokeWidth=1;fillColor=none;align=left;verticalAlign=middle;spacingTop=-1;spacingLeft=3;spacingRight=3;rotatable=0;labelPosition=right;points=[];portConstraint=eastwest;" parent="VnNv1GlPoRaZdp6luFFu-85" vertex="1"><mxGeometry y="52" width="160" height="8" as="geometry"/></mxCell><mxCell id="VnNv1GlPoRaZdp6luFFu-88" value="+ method(type): type" style="text;strokeColor=none;fillColor=none;align=left;verticalAlign=top;spacingLeft=4;spacingRight=4;overflow=hidden;rotatable=0;points=[[0,0.5],[1,0.5]];portConstraint=eastwest;" parent="VnNv1GlPoRaZdp6luFFu-85" vertex="1"><mxGeometry y="60" width="160" height="26" as="geometry"/></mxCell><mxCell id="VnNv1GlPoRaZdp6luFFu-97" value="Main Menu Screen" style="swimlane;" parent="1" vertex="1"><mxGeometry x="-660" y="610" width="560" height="405" as="geometry"/></mxCell><mxCell id="VnNv1GlPoRaZdp6luFFu-98" value="Win Screen" style="swimlane;" parent="1" vertex="1"><mxGeometry x="320" y="670" width="310" height="218" as="geometry"/></mxCell><mxCell id="VnNv1GlPoRaZdp6luFFu-77" value="WinSceneManager" style="swimlane;fontStyle=1;align=center;verticalAlign=top;childLayout=stackLayout;horizontal=1;startSize=26;horizontalStack=0;resizeParent=1;resizeParentMax=0;resizeLast=0;collapsible=1;marginBottom=0;" parent="VnNv1GlPoRaZdp6luFFu-98" vertex="1"><mxGeometry x="100" y="78" width="160" height="86" as="geometry"/></mxCell><mxCell id="VnNv1GlPoRaZdp6luFFu-78" value="+ field: type" style="text;strokeColor=none;fillColor=none;align=left;verticalAlign=top;spacingLeft=4;spacingRight=4;overflow=hidden;rotatable=0;points=[[0,0.5],[1,0.5]];portConstraint=eastwest;" parent="VnNv1GlPoRaZdp6luFFu-77" vertex="1"><mxGeometry y="26" width="160" height="26" as="geometry"/></mxCell><mxCell id="VnNv1GlPoRaZdp6luFFu-79" value="" style="line;strokeWidth=1;fillColor=none;align=left;verticalAlign=middle;spacingTop=-1;spacingLeft=3;spacingRight=3;rotatable=0;labelPosition=right;points=[];portConstraint=eastwest;" parent="VnNv1GlPoRaZdp6luFFu-77" vertex="1"><mxGeometry y="52" width="160" height="8" as="geometry"/></mxCell><mxCell id="VnNv1GlPoRaZdp6luFFu-80" value="+ method(type): type" style="text;strokeColor=none;fillColor=none;align=left;verticalAlign=top;spacingLeft=4;spacingRight=4;overflow=hidden;rotatable=0;points=[[0,0.5],[1,0.5]];portConstraint=eastwest;" parent="VnNv1GlPoRaZdp6luFFu-77" vertex="1"><mxGeometry y="60" width="160" height="26" as="geometry"/></mxCell><mxCell id="VnNv1GlPoRaZdp6luFFu-100" style="edgeStyle=orthogonalEdgeStyle;rounded=0;orthogonalLoop=1;jettySize=auto;html=1;endArrow=diamondThin;endFill=0;endSize=12;" parent="1" source="VnNv1GlPoRaZdp6luFFu-77" target="VnNv1GlPoRaZdp6luFFu-73" edge="1"><mxGeometry relative="1" as="geometry"><Array as="points"><mxPoint x="130" y="760"/></Array></mxGeometry></mxCell><mxCell id="VnNv1GlPoRaZdp6luFFu-101" style="edgeStyle=orthogonalEdgeStyle;rounded=0;orthogonalLoop=1;jettySize=auto;html=1;endArrow=diamondThin;endFill=0;endSize=12;" parent="1" source="VnNv1GlPoRaZdp6luFFu-33" target="VnNv1GlPoRaZdp6luFFu-73" edge="1"><mxGeometry relative="1" as="geometry"><Array as="points"><mxPoint x="30" y="270"/><mxPoint x="30" y="270"/></Array></mxGeometry></mxCell><mxCell id="VnNv1GlPoRaZdp6luFFu-102" value="GameSceren" style="swimlane;" parent="1" vertex="1"><mxGeometry x="-580" y="-490" width="1730" height="890" as="geometry"/></mxCell><mxCell id="VnNv1GlPoRaZdp6luFFu-37" value="GameStateMachine" style="swimlane;fontStyle=1;align=center;verticalAlign=top;childLayout=stackLayout;horizontal=1;startSize=26;horizontalStack=0;resizeParent=1;resizeParentMax=0;resizeLast=0;collapsible=1;marginBottom=0;" parent="VnNv1GlPoRaZdp6luFFu-102" vertex="1"><mxGeometry x="790" y="730" width="160" height="86" as="geometry"/></mxCell><mxCell id="VnNv1GlPoRaZdp6luFFu-38" value="+ field: type" style="text;strokeColor=none;fillColor=none;align=left;verticalAlign=top;spacingLeft=4;spacingRight=4;overflow=hidden;rotatable=0;points=[[0,0.5],[1,0.5]];portConstraint=eastwest;" parent="VnNv1GlPoRaZdp6luFFu-37" vertex="1"><mxGeometry y="26" width="160" height="26" as="geometry"/></mxCell><mxCell id="VnNv1GlPoRaZdp6luFFu-39" value="" style="line;strokeWidth=1;fillColor=none;align=left;verticalAlign=middle;spacingTop=-1;spacingLeft=3;spacingRight=3;rotatable=0;labelPosition=right;points=[];portConstraint=eastwest;" parent="VnNv1GlPoRaZdp6luFFu-37" vertex="1"><mxGeometry y="52" width="160" height="8" as="geometry"/></mxCell><mxCell id="VnNv1GlPoRaZdp6luFFu-40" value="+ method(type): type" style="text;strokeColor=none;fillColor=none;align=left;verticalAlign=top;spacingLeft=4;spacingRight=4;overflow=hidden;rotatable=0;points=[[0,0.5],[1,0.5]];portConstraint=eastwest;" parent="VnNv1GlPoRaZdp6luFFu-37" vertex="1"><mxGeometry y="60" width="160" height="26" as="geometry"/></mxCell></root></mxGraphModel></diagram></mxfile>